# xmcd CD database file
#
# Track frame offsets:
#	150
#	21357
#	49398
#	68806
#	87198
#	100001
#	129261
#	147984
#	175184
#	203214
#	216358
#	231855
#	246724
#	266511
#	281864
#	300060
#	314712
#
# Disc length: 4463 seconds
#
# Revision: 2
# Processed by: cddbd v1.5.1PL0 Copyright (c) Steve Scherf et al.
# Submitted via: CDex 1.51
#
DISCID=01116d11
DTITLE=Matthew Cadillac Cooper - Here I Come With the the Blues
DYEAR=2003
DGENRE=Blues
TTITLE0=Here I Come With the Blues
TTITLE1=Hey Joe
TTITLE2=Going Down
TTITLE3=Walkin' Away from You
TTITLE4=Messin' With the Kid
TTITLE5=Little Wing
TTITLE6=Caldonia
TTITLE7=Mustang Sally
TTITLE8=Need Your Love So Bad
TTITLE9=Long Grey Mare
TTITLE10=Meet Me in Harlem
TTITLE11=Walking By Myself
TTITLE12=Does It Feel Alright?
TTITLE13=Sweet Home Chicago
TTITLE14=Steam Train Blues
TTITLE15=Jailhouse Rock
TTITLE16=Hey Yeah
EXTD=YEAR: 2003
EXTT0=
EXTT1=
EXTT2=
EXTT3=
EXTT4=
EXTT5=
EXTT6=
EXTT7=
EXTT8=
EXTT9=
EXTT10=
EXTT11=
EXTT12=
EXTT13=
EXTT14=
EXTT15=
EXTT16=
PLAYORDER=
